<?xml version="1.0" encoding="UTF-8" standalone="no"?>
<!-- Created with Inkscape (http://www.inkscape.org/) -->

<svg
   xmlns:dc="http://purl.org/dc/elements/1.1/"
   xmlns:cc="http://creativecommons.org/ns#"
   xmlns:rdf="http://www.w3.org/1999/02/22-rdf-syntax-ns#"
   xmlns:svg="http://www.w3.org/2000/svg"
   xmlns="http://www.w3.org/2000/svg"
   xmlns:sodipodi="http://sodipodi.sourceforge.net/DTD/sodipodi-0.dtd"
   xmlns:inkscape="http://www.inkscape.org/namespaces/inkscape"
   width="210mm"
   height="297mm"
   viewBox="0 0 744.09448819 1052.3622047"
   id="svg2"
   version="1.1"
   inkscape:version="0.91 r13725"
   sodipodi:docname="add_sandwich.svg"
   inkscape:export-filename="/home/anton/sandwichprinter/graphical/add_sandwich.png"
   inkscape:export-xdpi="90"
   inkscape:export-ydpi="90">
  <defs
     id="defs4">
    <inkscape:perspective
       sodipodi:type="inkscape:persp3d"
       inkscape:vp_x="-79.034463 : 1073.7906 : 1"
       inkscape:vp_y="13.737207 : -394.47063 : 0"
       inkscape:vp_z="1293.4912 : 906.10529 : 1"
       inkscape:persp3d-origin="395.21226 : 895.4909 : 1"
       id="perspective3338" />
  </defs>
  <sodipodi:namedview
     id="base"
     pagecolor="#ffffff"
     bordercolor="#666666"
     borderopacity="1.0"
     inkscape:pageopacity="0.0"
     inkscape:pageshadow="2"
     inkscape:zoom="0.49497475"
     inkscape:cx="419.02693"
     inkscape:cy="551.71203"
     inkscape:document-units="px"
     inkscape:current-layer="layer1"
     showgrid="false"
     inkscape:window-width="1366"
     inkscape:window-height="716"
     inkscape:window-x="1440"
     inkscape:window-y="132"
     inkscape:window-maximized="1" />
  <metadata
     id="metadata7">
    <rdf:RDF>
      <cc:Work
         rdf:about="">
        <dc:format>image/svg+xml</dc:format>
        <dc:type
           rdf:resource="http://purl.org/dc/dcmitype/StillImage" />
        <dc:title></dc:title>
      </cc:Work>
    </rdf:RDF>
  </metadata>
  <g
     inkscape:label="Layer 1"
     inkscape:groupmode="layer"
     id="layer1">
    <path
       style="fill:#ff9955;fill-rule:evenodd;stroke:#000000;stroke-width:1px;stroke-linecap:butt;stroke-linejoin:miter;stroke-opacity:1"
       d="m 248.90606,273.92738 149.50258,101.01526 237.38585,-64.64977 -195.9696,-76.7716 z"
       id="path3382-3"
       inkscape:connector-curvature="0" />
    <path
       style="fill:#c87137;fill-rule:evenodd;stroke:#000000;stroke-width:1px;stroke-linecap:butt;stroke-linejoin:miter;stroke-opacity:1"
       d="m 248.14845,273.67484 0.50508,38.89087 148.9975,109.60156 0.25254,-46.97209 z"
       id="path3384-6"
       inkscape:connector-curvature="0"
       sodipodi:nodetypes="ccccc" />
    <path
       style="fill:#c87137;fill-rule:evenodd;stroke:#000000;stroke-width:1px;stroke-linecap:butt;stroke-linejoin:miter;stroke-opacity:1"
       d="m 398.15611,422.16727 238.39599,-70.2056 1.01016,-41.92134 -240.16377,64.64977 z"
       id="path3386-7"
       inkscape:connector-curvature="0"
       sodipodi:nodetypes="ccccc" />
    <path
       style="fill:#c83737;fill-rule:evenodd;stroke:#000000;stroke-width:0.64797038px;stroke-linecap:butt;stroke-linejoin:miter;stroke-opacity:1"
       d="m 311.29566,248.69839 c -6.46316,-1.21808 0.0753,-0.55482 -4.59122,0.34177 -0.47277,0.0908 -0.9358,-0.3036 -1.41976,-0.26758 -1.08216,0.0806 -2.08604,0.65297 -3.17145,0.60935 -2.50336,0.29991 -4.67378,-1.21159 -7.0988,-1.33789 -0.76686,-0.0399 -1.52756,0.19088 -2.29561,0.17089 -2.0641,-0.0537 -1.04484,-0.69986 -3.5494,-0.66895 -0.34363,0.004 -0.54155,0.37423 -0.87586,0.43846 -0.23639,0.0454 -0.47325,-0.0892 -0.70988,-0.13379 -0.7652,0.057 -1.59201,-0.0782 -2.29561,0.17089 -0.63258,0.61371 -0.97792,1.16548 -1.91765,1.44917 -0.66082,1.35804 -1.57596,-0.0464 -2.29561,0.17089 -0.81071,0.24474 -3.40261,1.7034 -4.37923,2.19231 -0.5839,0.2923 -1.1678,0.58462 -1.75169,0.87692 -0.29196,0.14616 -0.65621,0.22539 -0.87585,0.43846 -0.15531,0.15067 -0.0107,0.42159 -0.16597,0.57226 -0.6589,0.63922 -1.96863,0.67615 -2.62754,1.31538 -0.3106,0.30134 -0.13062,0.7879 -0.33193,1.1445 -0.17038,1.17986 -1.65151,1.65537 -2.24959,2.59368 -0.33318,0.52272 -0.33193,1.1445 -0.49789,1.71675 -0.38726,1.33525 -0.77451,2.67051 -1.16177,4.00576 -0.38725,1.33525 -0.7745,2.6705 -1.16176,4.00576 -0.16596,0.57225 -0.50906,1.12913 -0.49789,1.71675 0.008,0.43799 0.32798,0.84211 0.37794,1.27829 0.0224,0.19507 -0.25119,0.3888 -0.16596,0.57225 0.24105,0.51888 0.72522,0.94139 1.08782,1.41208 0.18131,0.23535 0.46424,0.43655 0.54392,0.70604 0.0564,0.19056 -0.1883,0.37718 -0.16596,0.57225 0.15369,1.34177 1.15725,2.2899 2.00968,3.39642 0.36261,0.47068 0.55919,1.05797 1.08783,1.41207 0.14742,0.0987 2.37319,0.44727 2.83952,0.53516 1.66481,0.31376 -0.29552,-0.19795 1.25381,0.83982 0.1869,0.1252 0.47325,0.0892 0.70987,0.1338 0.23663,0.0446 0.47326,0.0892 0.70988,0.13379 1.18314,0.22297 2.36627,0.44596 3.54941,0.66894 0.23662,0.0446 0.52297,0.009 0.70988,0.13379 0.26433,0.17705 0.25119,0.5609 0.54391,0.70604 0.4453,0.22079 3.217,0.44628 3.5494,0.66895 0.75229,0.50389 0.87947,1.61422 1.63175,2.11811 0.37381,0.25039 1.00578,0.0623 1.41976,0.26758 2.61824,1.29816 -0.30279,0.52206 3.21748,1.81345 2.09271,0.7677 0.88513,-0.43047 2.67355,1.10741 0.23503,0.2021 0.36261,0.47069 0.54391,0.70603 0.54392,0.70605 1.08784,1.41209 1.63175,2.11813 0.60649,0.78727 2.41596,2.87666 2.71957,3.53019 0.17046,0.36691 -0.37663,0.75438 -0.33193,1.14451 0.0499,0.43617 0.36962,0.84031 0.37794,1.27829 0.0119,0.62743 -0.47355,1.63282 -0.66386,2.289 -0.55322,1.90751 -1.10644,3.81501 -1.65966,5.72251 -0.0887,0.30571 -0.88391,2.67833 -0.82983,2.86126 0.0797,0.26949 0.53865,0.42903 0.54392,0.70604 0.0112,0.58761 -0.47438,1.12938 -0.4979,1.71675 -0.0175,0.4378 0.36963,0.84031 0.37795,1.2783 0.007,0.39173 -0.44462,0.76338 -0.33193,1.14449 0.15936,0.53898 0.79192,0.91199 1.08782,1.41209 0.37722,0.63749 0.56954,1.33764 0.92187,1.98433 0.13819,0.25365 0.42339,0.44659 0.54391,0.70604 1.22916,2.64577 -0.7652,0.057 1.63175,2.11811 0.47008,0.40423 0.50238,1.12181 1.08783,1.41209 0.41397,0.20525 0.9465,0.17838 1.41976,0.26757 0.23663,0.0446 0.52297,0.009 0.70987,0.13379 0.26433,0.17705 0.23825,0.57943 0.54392,0.70604 0.86458,0.35812 1.89302,0.35677 2.83953,0.53516 1.89301,0.35677 3.78603,0.71354 5.67905,1.07031 1.18312,0.22298 2.36626,0.44596 3.54939,0.66894 0.47326,0.0892 0.93581,0.30361 1.41976,0.26758 0.54108,-0.0403 1.05716,-0.20312 1.58573,-0.30467 0.52857,-0.10156 1.07686,-0.15105 1.58573,-0.30468 0.32184,-0.0971 0.54154,-0.37423 0.87585,-0.43845 0.23638,-0.0454 0.47324,0.0892 0.70987,0.13378 0.82053,-0.24771 1.65936,-0.45911 2.46158,-0.74313 0.69871,-0.24738 1.97872,-1.19073 2.62754,-1.31539 0.23638,-0.0454 0.4679,0.1518 0.70988,0.13379 0.54108,-0.0403 1.04465,-0.26439 1.58573,-0.30467 0.72593,-0.0541 1.4007,0.41036 2.12964,0.40136 1.21303,-0.0149 1.57126,-0.29742 2.46157,-0.74313 0.29195,-0.14616 0.54155,-0.37424 0.87585,-0.43847 0.23639,-0.0454 0.47325,0.0892 0.70988,0.13379 0.23663,0.0446 0.47326,0.0892 0.70988,0.13379 1.18313,0.22298 2.36627,0.44597 3.5494,0.66894 1.65639,0.31218 3.31278,0.62435 4.96916,0.93653 0.70988,0.13379 1.4661,0.15795 2.12964,0.40137 0.49458,0.18143 0.83587,0.55989 1.2538,0.83983 0.41793,0.27993 0.88216,0.52025 1.25379,0.83982 0.23505,0.20212 0.36262,0.4707 0.54392,0.70605 0.36261,0.47069 0.81144,0.90478 1.08783,1.41208 0.2185,0.40105 0.18738,0.86808 0.37795,1.27828 1.16961,2.51761 2.98402,4.66116 4.72926,6.92662 0.47186,0.6125 1.74427,2.48688 2.17567,2.82416 0.55163,0.43127 1.33389,0.61865 1.96367,0.97362 0.44533,0.25099 0.79095,0.61034 1.25379,0.83982 0.85345,0.42315 1.86666,0.62859 2.67356,1.10741 0.70561,0.41872 1.07965,1.14115 1.79771,1.54587 0.39831,0.2245 0.98747,0.0885 1.41976,0.26758 0.48331,0.20019 0.83586,0.55988 1.2538,0.83983 0.89118,0.36913 1.7616,0.77286 2.67356,1.1074 0.84585,0.3103 1.1478,-0.0854 2.12963,0.40137 0.29273,0.14514 0.2796,0.52899 0.54392,0.70604 0.39402,0.26393 2.4455,0.27123 2.83952,0.53515 0.52865,0.3541 0.61775,1.00786 1.08783,1.41209 0.1662,0.14291 0.47326,0.0892 0.70988,0.13378 0.70988,0.13379 1.41976,0.26758 2.12964,0.40137 1.41976,0.26758 2.83953,0.53516 4.25929,0.80273 1.41976,0.26758 2.83952,0.53516 4.25928,0.80274 0.16869,0.0318 2.66182,0.56929 2.83952,0.53515 0.6686,-0.12846 1.10802,-0.6826 1.75169,-0.87692 0.50887,-0.15363 1.08821,-0.12853 1.58573,-0.30468 0.62931,-0.2228 1.08309,-0.74845 1.75169,-0.87692 0.26218,-0.0504 3.00308,0.56598 3.54941,0.66895 1.41976,0.26757 2.83952,0.53515 4.25928,0.80273 0.47326,0.0892 0.94651,0.17839 1.41976,0.26758 0.23663,0.0446 0.50289,0.0312 0.70988,0.13379 0.57787,0.28651 3.28721,2.11174 3.76139,2.51949 0.23503,0.2021 0.30887,0.50392 0.54391,0.70603 0.37163,0.31957 0.83587,0.55989 1.2538,0.83983 0.41793,0.27995 0.80847,0.58883 1.25379,0.83983 0.62979,0.35496 1.37264,0.57772 1.96368,0.97362 0.26432,0.17705 0.32314,0.49373 0.54391,0.70604 5.80517,5.58275 -1.13102,-1.2109 3.05151,2.3857 0.23504,0.20211 0.27959,0.52898 0.54392,0.70603 0.59104,0.3959 1.41203,0.54235 1.96367,0.97362 0.4934,0.38575 0.59443,1.02634 1.08782,1.41209 0.55164,0.43127 1.33389,0.61865 1.96368,0.97361 0.44533,0.251 0.80847,0.58883 1.2538,0.83983 1.25957,0.70993 2.66777,1.23731 3.92735,1.94724 2.05124,1.15613 1.12088,1.55083 3.76138,2.51949 0.44237,0.16227 0.94651,0.17838 1.41977,0.26757 0.65455,0.32454 1.28016,0.69051 1.96368,0.97362 0.21613,0.0895 0.54367,-0.009 0.70987,0.13379 0.47008,0.40422 0.55919,1.05798 1.08783,1.41207 0.10311,0.0691 2.57743,0.43898 2.83952,0.53516 0.69945,0.25659 1.26424,0.71704 1.96368,0.97362 0.44236,0.16228 0.9465,0.17839 1.41976,0.26758 0.94651,0.17839 1.89302,0.35677 2.83952,0.53516 2.12964,0.40136 4.25928,0.80273 6.38893,1.2041 0.47325,0.0892 0.9465,0.17838 1.41976,0.26757 0.23662,0.0446 0.4679,0.1518 0.70988,0.1338 5.54267,-0.41261 -1.16706,-0.046 2.46157,-0.74314 0.23639,-0.0454 0.46791,0.1518 0.70988,0.13379 0.54108,-0.0403 1.04465,-0.2644 1.58573,-0.30468 0.24198,-0.018 0.4735,0.17921 0.70988,0.13379 0.3343,-0.0642 0.5839,-0.29231 0.87585,-0.43846 0.87585,-0.43846 1.83741,-0.78149 2.62754,-1.31539 0.18623,-0.12584 0.0107,-0.42158 0.16597,-0.57225 2.38397,-2.31282 -0.99849,2.37285 1.91765,-1.44917 0.12731,-0.16686 0.11065,-0.3815 0.16597,-0.57226 0.16596,-0.57225 0.33193,-1.1445 0.49789,-1.71675 0.38726,-1.33525 0.77451,-2.6705 1.16176,-4.00575 0.33194,-1.14451 0.66387,-2.28901 0.9958,-3.43351 0.11064,-0.3815 0.22129,-0.76301 0.33194,-1.1445 0.11064,-0.3815 0.33937,-0.75276 0.33193,-1.14451 -0.008,-0.43798 -0.32799,-0.84211 -0.37795,-1.27828 -0.0447,-0.39014 0.37662,-0.75438 0.33193,-1.14451 -0.0499,-0.43617 -0.36963,-0.84031 -0.37795,-1.27829 -0.0112,-0.58761 0.33193,-1.1445 0.4979,-1.71675 0.18122,-0.62484 0.56947,-2.52002 0.82983,-2.86125 0.87571,-1.14776 2.29671,-1.63894 3.66935,-2.3261 0.29194,-0.14616 0.554,-0.34131 0.87584,-0.43847 1.01774,-0.30725 2.15373,-0.3021 3.17146,-0.60935 2.55106,-0.77015 -1.81931,-0.44565 3.33742,-1.18159 0.9866,-0.14081 2.01491,0.0843 3.00548,-0.0371 0.33977,-0.0417 0.5839,-0.29231 0.87585,-0.43846 0.5839,-0.29232 1.1678,-0.58462 1.7517,-0.87693 0.99932,-0.50028 3.34061,-1.8246 4.37923,-2.19231 0.49752,-0.17615 1.07686,-0.15105 1.58573,-0.30468 1.50134,-0.45324 0.28241,-0.71624 2.46157,-0.74313 0.48596,-0.006 0.94651,0.17838 1.41976,0.26757 1.65639,0.31218 3.31277,0.62436 4.96916,0.93653 5.44242,1.02571 10.88484,2.05143 16.32725,3.07714 1.18314,0.22298 2.36627,0.44597 3.54941,0.66895 0.47325,0.0892 0.9358,0.3036 1.41976,0.26758 1.08216,-0.0806 2.1143,-0.40623 3.17145,-0.60935 0.72315,-1.19339 1.54809,-0.0273 2.29561,-0.17088 0.32805,-0.063 2.3566,-1.11064 2.62754,-1.31539 1.70303,-1.28697 0.70519,-1.24918 1.53971,-2.72747 2.59277,-4.59288 0.0161,-0.0156 2.08362,-2.02143 0.15531,-0.15066 0.11064,-0.38149 0.16597,-0.57224 0.0553,-0.19076 0.11064,-0.38151 0.16596,-0.57225 0.33194,-1.14451 0.66387,-2.28901 0.9958,-3.43351 0.33193,-1.1445 0.66386,-2.28901 0.99579,-3.4335 0.11065,-0.38151 0.22129,-0.763 0.33193,-1.14451 0.0554,-0.19075 0.18832,-0.37718 0.16597,-0.57225 -0.0499,-0.43618 -0.29629,-0.84524 -0.37794,-1.27829 -0.16996,-0.90144 -0.0989,-2.22749 -0.58993,-3.12883 -0.2764,-0.5073 -0.84678,-0.8932 -1.08784,-1.41208 -0.0852,-0.18346 0.11065,-0.3815 0.16597,-0.57226 0.0553,-0.19074 0.11065,-0.3815 0.16596,-0.57224 0.38398,-1.32395 0.55928,-2.60553 2.41556,-3.16594 1.87775,-0.56687 1.29371,-0.0425 3.17146,-0.60934 0.32184,-0.0972 0.54154,-0.37423 0.87585,-0.43846 1.75287,-0.33679 1.79547,-0.26515 3.00549,-0.0371 0.23663,0.0446 0.467,0.12745 0.70987,0.13379 1.00143,0.0261 2.0074,-0.1079 3.00549,-0.0371 1.21036,0.0859 2.335,0.63734 3.54941,0.66895 4.49863,0.11708 0.46008,-0.51682 3.71537,0.0967 2.36626,0.44596 4.73253,0.89193 7.0988,1.33789 0.9465,0.17839 1.86864,0.57325 2.83952,0.53516 1.08548,-0.0426 2.09703,-0.4777 3.17146,-0.60935 0.24024,-0.0294 0.4679,0.1518 0.70988,0.13379 0.54108,-0.0403 1.04241,-0.29797 1.58572,-0.30467 0.97192,-0.012 1.868,0.50987 2.83952,0.53515 0.76806,0.02 1.52724,-0.1614 2.29561,-0.17088 0.24298,-0.003 0.47349,0.17921 0.70988,0.13379 0.3343,-0.0642 0.54155,-0.37423 0.87585,-0.43847 0.23638,-0.0454 0.4735,0.17922 0.70988,0.1338 0.6686,-0.12847 1.08309,-0.74846 1.75169,-0.87693 0.23639,-0.0454 0.46791,0.1518 0.70988,0.13379 0.54108,-0.0403 1.05715,-0.20312 1.58573,-0.30467 0.52857,-0.10156 1.07686,-0.15105 1.58572,-0.30468 0.32184,-0.0972 0.55402,-0.3413 0.87586,-0.43846 0.50886,-0.15362 1.07685,-0.15105 1.58572,-0.30468 0.32184,-0.0971 0.5839,-0.2923 0.87584,-0.43846 0.5839,-0.2923 1.22495,-0.52098 1.7517,-0.87692 0.41643,-0.28139 0.64539,-0.71113 1.04181,-1.01071 0.25073,-0.18948 0.65622,-0.22539 0.87585,-0.43846 0.15531,-0.15067 0.0107,-0.42159 0.16596,-0.57226 0.21963,-0.21307 0.6958,-0.20248 0.87586,-0.43846 0.25462,-0.33372 0.0213,-0.84317 0.33193,-1.1445 0.43926,-0.42615 1.25024,-0.49798 1.75168,-0.87692 0.17729,-0.13398 0.0387,-0.40539 0.16597,-0.57225 0.28468,-0.37311 0.75714,-0.63761 1.04182,-1.01071 0.24561,-0.32192 0.86761,-2.99154 0.99579,-3.43351 0.0553,-0.19075 0.0387,-0.4054 0.16597,-0.57225 0.28467,-0.37311 0.75713,-0.63761 1.04181,-1.01072 0.22714,-0.2977 0.38884,-1.34072 0.4979,-1.71675 0.33193,-1.1445 0.66386,-2.289 0.99579,-3.4335 0.33193,-1.14451 0.66386,-2.28901 0.9958,-3.43351 0.10906,-0.37604 0.53776,-1.36873 0.4979,-1.71676 -0.25617,-2.23625 -0.2187,-0.47074 -0.92187,-1.98432 -0.19057,-0.41021 -0.18738,-0.86809 -0.37795,-1.2783 -0.12052,-0.25944 -0.46423,-0.43655 -0.54391,-0.70604 -0.17817,-0.60259 -0.0339,-1.24795 -0.21199,-1.85054 -0.22677,-0.76697 -1.40497,-1.35114 -1.63174,-2.11812 -0.0564,-0.19056 0.22231,-0.3817 0.16597,-0.57225 -0.0797,-0.26949 -0.36262,-0.47069 -0.54392,-0.70604 -0.54391,-0.70604 -1.08783,-1.41208 -1.63174,-2.11812 -0.36262,-0.47069 -0.84677,-0.8932 -1.08784,-1.41208 -0.19056,-0.41021 -0.0913,-0.90617 -0.37794,-1.27829 -0.12821,-0.16641 -0.52298,-0.009 -0.70988,-0.13379 -0.26432,-0.17705 -0.27959,-0.52899 -0.54392,-0.70604 -0.1869,-0.1252 -0.54368,0.009 -0.70988,-0.13379 -0.47008,-0.40423 -0.61774,-1.00785 -1.08783,-1.41208 -0.26095,-0.22439 -1.79873,-0.17971 -2.12963,-0.40137 -0.26433,-0.17705 -0.2512,-0.5609 -0.54392,-0.70604 -0.41398,-0.20525 -0.98747,-0.0885 -1.41976,-0.26757 -0.48332,-0.20019 -0.79095,-0.61035 -1.2538,-0.83983 -0.42331,-0.20988 -2.77429,-0.52286 -3.5494,-0.66895 -2.6029,-0.49056 -5.20579,-0.98112 -7.80868,-1.47167 -2.12965,-0.40137 -4.25929,-0.80274 -6.38894,-1.20411 -0.45765,-0.0862 -2.66322,-0.58838 -2.83952,-0.53515 -0.64367,0.19431 -1.08309,0.74846 -1.75168,0.87692 -0.47278,0.0908 -0.93581,-0.3036 -1.41977,-0.26758 -0.34221,0.0255 -0.58389,0.29232 -0.87584,0.43847 -0.7652,0.0569 -1.52725,0.1614 -2.29562,0.17088 -0.24298,0.003 -0.46689,-0.13681 -0.70987,-0.13379 -0.76837,0.009 -1.53041,0.11392 -2.29561,0.17089 -0.7652,0.0569 -1.54809,0.0273 -2.29561,0.17088 -0.6686,0.12846 -1.06727,0.82598 -1.75169,0.87693 -0.48396,0.036 -0.94651,-0.17839 -1.41977,-0.26758 -0.23662,-0.0446 -0.47349,-0.17921 -0.70987,-0.13379 -0.3343,0.0642 -0.54155,0.37423 -0.87585,0.43846 -0.23639,0.0454 -0.47325,-0.0892 -0.70988,-0.13379 -0.47326,-0.0892 -0.9338,-0.27358 -1.41976,-0.26758 -1.42424,0.0176 -2.17411,0.59923 -3.33742,1.1816 -0.29195,0.14615 -0.54155,0.37423 -0.87584,0.43846 -0.23639,0.0454 -0.4735,-0.1792 -0.70989,-0.13379 -0.3343,0.0642 -0.54154,0.37424 -0.87585,0.43846 -0.52544,0.10096 -2.19817,-0.58289 -2.83952,-0.53515 -0.54107,0.0403 -1.05715,0.20312 -1.58572,0.30468"
       id="path3390"
       inkscape:connector-curvature="0" />
    <path
       style="fill:#ff9955;fill-rule:evenodd;stroke:#000000;stroke-width:1px;stroke-linecap:butt;stroke-linejoin:miter;stroke-opacity:1"
       d="m 251.52798,203.83407 149.50258,101.01525 237.38585,-64.64976 -195.9696,-76.7716 z"
       id="path3382"
       inkscape:connector-curvature="0" />
    <path
       style="fill:#c87137;fill-rule:evenodd;stroke:#000000;stroke-width:1px;stroke-linecap:butt;stroke-linejoin:miter;stroke-opacity:1"
       d="m 250.77037,203.58153 0.50508,38.89087 148.9975,109.60155 0.25254,-46.97209 z"
       id="path3384"
       inkscape:connector-curvature="0"
       sodipodi:nodetypes="ccccc" />
    <path
       style="fill:#c87137;fill-rule:evenodd;stroke:#000000;stroke-width:1px;stroke-linecap:butt;stroke-linejoin:miter;stroke-opacity:1"
       d="m 400.77803,352.07395 238.39599,-70.2056 1.01016,-41.92133 -240.16377,64.64976 z"
       id="path3386"
       inkscape:connector-curvature="0"
       sodipodi:nodetypes="ccccc" />
    <path
       style="fill:none;fill-rule:evenodd;stroke:#000000;stroke-width:1px;stroke-linecap:butt;stroke-linejoin:miter;stroke-opacity:1"
       d="m 437.39605,178.58025 c 143.44166,64.64977 126.26907,66.67007 126.26907,66.67007"
       id="path3413"
       inkscape:connector-curvature="0" />
    <path
       style="fill:none;fill-rule:evenodd;stroke:#000000;stroke-width:1px;stroke-linecap:butt;stroke-linejoin:miter;stroke-opacity:1"
       d="m 385.91561,186.64111 c 143.44166,64.64977 126.26907,66.67007 126.26907,66.67007"
       id="path3413-5"
       inkscape:connector-curvature="0" />
    <path
       style="fill:none;fill-rule:evenodd;stroke:#000000;stroke-width:1px;stroke-linecap:butt;stroke-linejoin:miter;stroke-opacity:1"
       d="M 335.40797,196.74263 C 478.84963,261.3924 461.67704,263.4127 461.67704,263.4127"
       id="path3413-3"
       inkscape:connector-curvature="0" />
    <path
       style="fill:none;fill-rule:evenodd;stroke:#000000;stroke-width:1px;stroke-linecap:butt;stroke-linejoin:miter;stroke-opacity:1"
       d="m 288.94096,204.82385 c 143.44166,64.64977 126.26907,66.67007 126.26907,66.67007"
       id="path3413-56"
       inkscape:connector-curvature="0" />
    <ellipse
       style="fill:#333333"
       id="path3446"
       cx="586.22864"
       cy="390.16733"
       rx="67.131065"
       ry="69.039352" />
    <rect
       style="fill:#008000"
       id="rect3442"
       width="21.427517"
       height="120.32401"
       x="575.09595"
       y="329.49295"
       ry="10.640898" />
    <rect
       style="fill:#008000"
       id="rect3444"
       width="122.38409"
       height="22.100325"
       x="523.99963"
       y="378.60477"
       ry="11.050162" />
  </g>
</svg>
